<svg width="32" height="32" viewBox="0 0 32 32" fill="none" xmlns="http://www.w3.org/2000/svg">
  <path d="M8.5 26.5C8.5 26.5 8.5 26.5 8.5 26.5C7.67157 26.5 7 25.8284 7 25C7 24.1716 7.67157 23.5 8.5 23.5C8.5 23.5 8.5 23.5 8.5 23.5C12.5 23.5 16.5 19.5 20.5 15.5C22.5 13.5 24.5 11.5 25.5 9.5C26.5 7.5 26.5 5.5 25.5 4.5C24.5 3.5 22.5 3.5 20.5 4.5C18.5 5.5 16.5 7.5 14.5 9.5C10.5 13.5 6.5 17.5 6.5 21.5C6.5 23.5 7.5 25.5 8.5 26.5Z" fill="#2D3748" stroke="#2D3748" stroke-width="1.5" stroke-linecap="round" stroke-linejoin="round"/>
</svg>
